<svg xmlns="http://www.w3.org/2000/svg" viewBox="0 0 100 100">
  <rect width="100" height="100" rx="22" fill="#D97B4F"/>
  <!-- Plate -->
  <circle cx="50" cy="55" r="26" fill="none" stroke="white" stroke-width="3.5"/>
  <circle cx="50" cy="55" r="18" fill="white" opacity="0.25"/>
  <!-- Fork tines -->
  <rect x="33" y="20" width="3" height="14" rx="1.5" fill="white"/>
  <rect x="39" y="20" width="3" height="14" rx="1.5" fill="white"/>
  <rect x="45" y="20" width="3" height="14" rx="1.5" fill="white"/>
  <!-- Fork handle -->
  <rect x="35" y="32" width="8" height="28" rx="4" fill="white"/>
  <!-- Knife blade -->
  <path d="M57 20 L57 48 Q57 50 59 50 L61 50 L61 20 Q61 20 62 20 Q66 22 66 36 Q66 46 61 50 L61 78 Q61 80 59 80 Q57 80 57 78 Z" fill="white"/>
</svg>
